<svg xmlns="http://www.w3.org/2000/svg" version="1.1" xmlns:xlink="http://www.w3.org/1999/xlink" xmlns:svgjs="http://svgjs.dev/svgjs" width="128" height="128" viewBox="0 0 128 128"><g transform="matrix(0.8046875,0,0,0.8046875,12.333870967741937,12.333870967741937)"><svg viewBox="0 0 155 155" data-background-color="#000000" preserveAspectRatio="xMidYMid meet" height="128" width="128" xmlns="http://www.w3.org/2000/svg" xmlns:xlink="http://www.w3.org/1999/xlink"><g id="tight-bounds" transform="matrix(1,0,0,1,0.25,0.25)"><svg viewBox="0 0 154.5 154.5" height="154.5" width="154.5"><g><svg></svg></g><g><svg viewBox="0 0 154.5 154.5" height="154.5" width="154.5"><mask id="4a55c013-1a3f-4344-b0b5-d1e1e3a47656"><rect width="250" height="250" fill="white"></rect><g transform="matrix(1,0,0,1,48.775419667431194,43.83165)"><svg viewBox="0 0 56.94916066513762 66.8367" height="66.8367" width="56.94916066513762"><g><svg viewBox="0 0 56.94916066513762 66.8367" height="66.8367" width="56.94916066513762"><g><svg viewBox="0 0 56.94916066513762 66.8367" height="66.8367" width="56.94916066513762"><g id="SvgjsG1329"><svg viewBox="0 0 56.94916066513762 66.8367" height="66.8367" width="56.94916066513762" id="SvgjsSvg1328"><g><svg viewBox="0 0 56.94916066513762 66.8367" height="66.8367" width="56.94916066513762"><g transform="matrix(1,0,0,1,0,0)"><svg width="56.94916066513762" viewBox="-2.5 -39.05 38.15 44.6" height="66.8367" data-palette-color="url(#8c0f3623-bf48-4545-a410-fcb8c87d371d)"><path d="M25.1-5.4L31.65-2.45 28.6 1.55 22.05-2.35 18.45-13.55 14.25-16.85 9.95-15.5 9.8-2.45 13.2-1.75 13.5 0.2 2.5 0 2.35-1.35 5.7-2.35 5.7-32.1 1.5-33.6 1.75-35.05 12.9-35.05 13.15-33.2 10.1-32.35 10.2-32.3 9.95-18.85 15-20.25 18.35-22.8 21.3-33.85 27.35-35.05 28.15-32.05 24.6-31.35 20.05-20.1 18.2-18.7 21.3-17.1 25.1-5.4Z" opacity="1" transform="matrix(1,0,0,1,0,0)" fill="black" class="wordmark-text-0" id="SvgjsPath1327" stroke-width="7" stroke="black" stroke-linejoin="round"></path></svg></g></svg></g></svg></g></svg></g></svg></g></svg></g></mask><g transform="matrix(1,0,0,1,48.775419667431194,43.83165)"><svg viewBox="0 0 56.94916066513762 66.8367" height="66.8367" width="56.94916066513762"><g><svg viewBox="0 0 56.94916066513762 66.8367" height="66.8367" width="56.94916066513762"><g><svg viewBox="0 0 56.94916066513762 66.8367" height="66.8367" width="56.94916066513762"><g id="textblocktransform"><svg viewBox="0 0 56.94916066513762 66.8367" height="66.8367" width="56.94916066513762" id="textblock"><g><svg viewBox="0 0 56.94916066513762 66.8367" height="66.8367" width="56.94916066513762"><g transform="matrix(1,0,0,1,0,0)"><svg width="56.94916066513762" viewBox="-2.5 -39.05 38.15 44.6" height="66.8367" data-palette-color="url(#8c0f3623-bf48-4545-a410-fcb8c87d371d)"></svg></g></svg></g></svg></g></svg></g></svg></g></svg></g><g mask="url(#4a55c013-1a3f-4344-b0b5-d1e1e3a47656)"><g transform="matrix(1.19140625, 0, 0, 1.19140625, 24.828125, 1)"><svg xmlns="http://www.w3.org/2000/svg" data-name="Layer 1" viewBox="20 0 88 128" x="0" y="0" height="128" width="88" class="icon-none" data-fill-palette-color="accent" id="none"></svg></g></g></svg></g><defs></defs><mask id="064a7ef1-9745-40cb-aaef-9611b30162f8"><g id="SvgjsG1339"><svg viewBox="0 0 154.5 154.5" height="154.5" width="154.5"><g><svg></svg></g><g><svg viewBox="0 0 154.5 154.5" height="154.5" width="154.5"><mask id="SvgjsMask1338"><rect width="250" height="250" fill="black"></rect><g transform="matrix(1,0,0,1,48.775419667431194,43.83165)"><svg viewBox="0 0 56.94916066513762 66.8367" height="66.8367" width="56.94916066513762"><g><svg viewBox="0 0 56.94916066513762 66.8367" height="66.8367" width="56.94916066513762"><g><svg viewBox="0 0 56.94916066513762 66.8367" height="66.8367" width="56.94916066513762"><g id="SvgjsG1337"><svg viewBox="0 0 56.94916066513762 66.8367" height="66.8367" width="56.94916066513762" id="SvgjsSvg1336"><g><svg viewBox="0 0 56.94916066513762 66.8367" height="66.8367" width="56.94916066513762"><g transform="matrix(1,0,0,1,0,0)"><svg width="56.94916066513762" viewBox="-2.5 -39.05 38.15 44.6" height="66.8367" data-palette-color="url(#8c0f3623-bf48-4545-a410-fcb8c87d371d)"><path d="M25.1-5.4L31.65-2.45 28.6 1.55 22.05-2.35 18.45-13.55 14.25-16.85 9.95-15.5 9.8-2.45 13.2-1.75 13.5 0.2 2.5 0 2.35-1.35 5.7-2.35 5.7-32.1 1.5-33.6 1.75-35.05 12.9-35.05 13.15-33.2 10.1-32.35 10.2-32.3 9.95-18.85 15-20.25 18.35-22.8 21.3-33.85 27.35-35.05 28.15-32.05 24.6-31.35 20.05-20.1 18.2-18.7 21.3-17.1 25.1-5.4Z" opacity="1" transform="matrix(1,0,0,1,0,0)" fill="black" class="wordmark-text-0" id="SvgjsPath1335" stroke-width="7" stroke="black" stroke-linejoin="round"></path></svg></g></svg></g></svg></g></svg></g></svg></g></svg></g></mask><g transform="matrix(1,0,0,1,48.775419667431194,43.83165)"><svg viewBox="0 0 56.94916066513762 66.8367" height="66.8367" width="56.94916066513762"><g><svg viewBox="0 0 56.94916066513762 66.8367" height="66.8367" width="56.94916066513762"><g><svg viewBox="0 0 56.94916066513762 66.8367" height="66.8367" width="56.94916066513762"><g id="SvgjsG1334"><svg viewBox="0 0 56.94916066513762 66.8367" height="66.8367" width="56.94916066513762" id="SvgjsSvg1333"><g><svg viewBox="0 0 56.94916066513762 66.8367" height="66.8367" width="56.94916066513762"><g transform="matrix(1,0,0,1,0,0)"><svg width="56.94916066513762" viewBox="-2.5 -39.05 38.15 44.6" height="66.8367" data-palette-color="url(#8c0f3623-bf48-4545-a410-fcb8c87d371d)"><path d="M25.1-5.4L31.65-2.45 28.6 1.55 22.05-2.35 18.45-13.55 14.25-16.85 9.95-15.5 9.8-2.45 13.2-1.75 13.5 0.2 2.5 0 2.35-1.35 5.7-2.35 5.7-32.1 1.5-33.6 1.75-35.05 12.9-35.05 13.15-33.2 10.1-32.35 10.2-32.3 9.95-18.85 15-20.25 18.35-22.8 21.3-33.85 27.35-35.05 28.15-32.05 24.6-31.35 20.05-20.1 18.2-18.7 21.3-17.1 25.1-5.4Z" opacity="1" transform="matrix(1,0,0,1,0,0)" fill="white" class="wordmark-text-0" id="SvgjsPath1332"></path></svg></g></svg></g></svg></g></svg></g></svg></g></svg></g><g mask="url(#4a55c013-1a3f-4344-b0b5-d1e1e3a47656)"><g transform="matrix(1.19140625, 0, 0, 1.19140625, 24.828125, 1)"><svg xmlns="http://www.w3.org/2000/svg" data-name="Layer 1" viewBox="20 0 88 128" x="0" y="0" height="128" width="88" class="icon-none" data-fill-palette-color="accent" id="SvgjsSvg1331"><path d="M28 39v76a5.006 5.006 0 0 0 5 5H95a5.006 5.006 0 0 0 5-5V39a5.006 5.006 0 0 0-5-5H33A5.006 5.006 0 0 0 28 39Zm68 0v76a1.001 1.001 0 0 1-1 1H33a1.001 1.001 0 0 1-1-1V39a1.001 1.001 0 0 1 1-1H95A1.001 1.001 0 0 1 96 39Z" fill="black"></path><path d="M45 92H83a4 4 0 0 0 4-4V77A15.006 15.006 0 0 0 72.878 62.044a12 12 0 1 0-17.756 0A15.006 15.006 0 0 0 41 77V88A4 4 0 0 0 45 92ZM64 46a8 8 0 1 1-8 8A8 8 0 0 1 64 46ZM45 77A11 11 0 0 1 56 66H72A11 11 0 0 1 83 77V88H45Z" fill="black"></path><path d="M83 96H45a2 2 0 0 0 0 4H83a2 2 0 0 0 0-4Z" fill="black"></path><path d="M76.5 104h-25a2 2 0 0 0 0 4h25a2 2 0 0 0 0-4Z" fill="black"></path><path d="M58 0a2 2 0 0 0-2 2V14H26a6.007 6.007 0 0 0-6 6V122a6.007 6.007 0 0 0 6 6h76a6.007 6.007 0 0 0 6-6V20a6.007 6.007 0 0 0-6-6H72V2a2 2 0 0 0-4 0V26H60V2A2 2 0 0 0 58 0ZM75 30a2 2 0 0 0 0-4H72V18h30a2.002 2.002 0 0 1 2 2V122a2.003 2.003 0 0 1-2 2H26a2.003 2.003 0 0 1-2-2V20a2.002 2.002 0 0 1 2-2H56v8H53a2 2 0 0 0 0 4Z" fill="black"></path></svg></g></g></svg></g><defs><mask></mask></defs></svg><rect width="154.5" height="154.5" fill="black" stroke="none" visibility="hidden"></rect></g></mask><linearGradient x1="0" x2="1" y1="0.5" y2="0.5" id="8c0f3623-bf48-4545-a410-fcb8c87d371d"><stop stop-color="#f00b51" offset="0"></stop><stop stop-color="#730062" offset="1"></stop></linearGradient><rect width="154.5" height="154.5" fill="url(#8c0f3623-bf48-4545-a410-fcb8c87d371d)" mask="url(#064a7ef1-9745-40cb-aaef-9611b30162f8)" data-fill-palette-color="primary"></rect><mask id="6d7327b6-2c13-43f6-aa0a-b09c62985941"><g id="SvgjsG1374"><svg viewBox="0 0 154.5 154.5" height="154.5" width="154.5"><g><svg></svg></g><g><svg viewBox="0 0 154.5 154.5" height="154.5" width="154.5"><mask id="SvgjsMask1373"><rect width="250" height="250" fill="black"></rect><g transform="matrix(1,0,0,1,48.775419667431194,43.83165)"><svg viewBox="0 0 56.94916066513762 66.8367" height="66.8367" width="56.94916066513762"><g><svg viewBox="0 0 56.94916066513762 66.8367" height="66.8367" width="56.94916066513762"><g><svg viewBox="0 0 56.94916066513762 66.8367" height="66.8367" width="56.94916066513762"><g id="SvgjsG1372"><svg viewBox="0 0 56.94916066513762 66.8367" height="66.8367" width="56.94916066513762" id="SvgjsSvg1371"><g><svg viewBox="0 0 56.94916066513762 66.8367" height="66.8367" width="56.94916066513762"><g transform="matrix(1,0,0,1,0,0)"><svg width="56.94916066513762" viewBox="-2.5 -39.05 38.15 44.6" height="66.8367" data-palette-color="url(#8c0f3623-bf48-4545-a410-fcb8c87d371d)"><path d="M25.1-5.4L31.65-2.45 28.6 1.55 22.05-2.35 18.45-13.55 14.25-16.85 9.95-15.5 9.8-2.45 13.2-1.75 13.5 0.2 2.5 0 2.35-1.35 5.7-2.35 5.7-32.1 1.5-33.6 1.75-35.05 12.9-35.05 13.15-33.2 10.1-32.35 10.2-32.3 9.95-18.85 15-20.25 18.35-22.8 21.3-33.85 27.35-35.05 28.15-32.05 24.6-31.35 20.05-20.1 18.2-18.7 21.3-17.1 25.1-5.4Z" opacity="1" transform="matrix(1,0,0,1,0,0)" fill="black" class="wordmark-text-0" id="SvgjsPath1370" stroke-width="7" stroke="black" stroke-linejoin="round"></path></svg></g></svg></g></svg></g></svg></g></svg></g></svg></g></mask><g transform="matrix(1,0,0,1,48.775419667431194,43.83165)"><svg viewBox="0 0 56.94916066513762 66.8367" height="66.8367" width="56.94916066513762"><g><svg viewBox="0 0 56.94916066513762 66.8367" height="66.8367" width="56.94916066513762"><g><svg viewBox="0 0 56.94916066513762 66.8367" height="66.8367" width="56.94916066513762"><g id="SvgjsG1369"><svg viewBox="0 0 56.94916066513762 66.8367" height="66.8367" width="56.94916066513762" id="SvgjsSvg1368"><g><svg viewBox="0 0 56.94916066513762 66.8367" height="66.8367" width="56.94916066513762"><g transform="matrix(1,0,0,1,0,0)"><svg width="56.94916066513762" viewBox="-2.5 -39.05 38.15 44.6" height="66.8367" data-palette-color="url(#8c0f3623-bf48-4545-a410-fcb8c87d371d)"></svg></g></svg></g></svg></g></svg></g></svg></g></svg></g><g mask="url(#4a55c013-1a3f-4344-b0b5-d1e1e3a47656)"><g transform="matrix(1.19140625, 0, 0, 1.19140625, 24.828125, 1)"><svg xmlns="http://www.w3.org/2000/svg" data-name="Layer 1" viewBox="20 0 88 128" x="0" y="0" height="128" width="88" class="icon-none" data-fill-palette-color="accent" id="SvgjsSvg1367"><path d="M28 39v76a5.006 5.006 0 0 0 5 5H95a5.006 5.006 0 0 0 5-5V39a5.006 5.006 0 0 0-5-5H33A5.006 5.006 0 0 0 28 39Zm68 0v76a1.001 1.001 0 0 1-1 1H33a1.001 1.001 0 0 1-1-1V39a1.001 1.001 0 0 1 1-1H95A1.001 1.001 0 0 1 96 39Z" fill="white"></path><path d="M45 92H83a4 4 0 0 0 4-4V77A15.006 15.006 0 0 0 72.878 62.044a12 12 0 1 0-17.756 0A15.006 15.006 0 0 0 41 77V88A4 4 0 0 0 45 92ZM64 46a8 8 0 1 1-8 8A8 8 0 0 1 64 46ZM45 77A11 11 0 0 1 56 66H72A11 11 0 0 1 83 77V88H45Z" fill="white"></path><path d="M83 96H45a2 2 0 0 0 0 4H83a2 2 0 0 0 0-4Z" fill="white"></path><path d="M76.5 104h-25a2 2 0 0 0 0 4h25a2 2 0 0 0 0-4Z" fill="white"></path><path d="M58 0a2 2 0 0 0-2 2V14H26a6.007 6.007 0 0 0-6 6V122a6.007 6.007 0 0 0 6 6h76a6.007 6.007 0 0 0 6-6V20a6.007 6.007 0 0 0-6-6H72V2a2 2 0 0 0-4 0V26H60V2A2 2 0 0 0 58 0ZM75 30a2 2 0 0 0 0-4H72V18h30a2.002 2.002 0 0 1 2 2V122a2.003 2.003 0 0 1-2 2H26a2.003 2.003 0 0 1-2-2V20a2.002 2.002 0 0 1 2-2H56v8H53a2 2 0 0 0 0 4Z" fill="white"></path></svg></g></g></svg></g><defs><mask></mask></defs><mask><g id="SvgjsG1366"><svg viewBox="0 0 154.5 154.5" height="154.5" width="154.5"><g><svg></svg></g><g><svg viewBox="0 0 154.5 154.5" height="154.5" width="154.5"><mask id="SvgjsMask1365"><rect width="250" height="250" fill="black"></rect><g transform="matrix(1,0,0,1,48.775419667431194,43.83165)"><svg viewBox="0 0 56.94916066513762 66.8367" height="66.8367" width="56.94916066513762"><g><svg viewBox="0 0 56.94916066513762 66.8367" height="66.8367" width="56.94916066513762"><g><svg viewBox="0 0 56.94916066513762 66.8367" height="66.8367" width="56.94916066513762"><g id="SvgjsG1364"><svg viewBox="0 0 56.94916066513762 66.8367" height="66.8367" width="56.94916066513762" id="SvgjsSvg1363"><g><svg viewBox="0 0 56.94916066513762 66.8367" height="66.8367" width="56.94916066513762"><g transform="matrix(1,0,0,1,0,0)"><svg width="56.94916066513762" viewBox="-2.5 -39.05 38.15 44.6" height="66.8367" data-palette-color="url(#8c0f3623-bf48-4545-a410-fcb8c87d371d)"><path d="M25.1-5.4L31.65-2.45 28.6 1.55 22.05-2.35 18.45-13.55 14.25-16.85 9.95-15.5 9.8-2.45 13.2-1.75 13.5 0.2 2.5 0 2.35-1.35 5.7-2.35 5.7-32.1 1.5-33.6 1.75-35.05 12.9-35.05 13.15-33.2 10.1-32.35 10.2-32.3 9.95-18.85 15-20.25 18.35-22.8 21.3-33.85 27.35-35.05 28.15-32.05 24.6-31.35 20.05-20.1 18.2-18.7 21.3-17.1 25.1-5.4Z" opacity="1" transform="matrix(1,0,0,1,0,0)" fill="black" class="wordmark-text-0" id="SvgjsPath1362" stroke-width="7" stroke="black" stroke-linejoin="round"></path></svg></g></svg></g></svg></g></svg></g></svg></g></svg></g></mask><g transform="matrix(1,0,0,1,48.775419667431194,43.83165)"><svg viewBox="0 0 56.94916066513762 66.8367" height="66.8367" width="56.94916066513762"><g><svg viewBox="0 0 56.94916066513762 66.8367" height="66.8367" width="56.94916066513762"><g><svg viewBox="0 0 56.94916066513762 66.8367" height="66.8367" width="56.94916066513762"><g id="SvgjsG1361"><svg viewBox="0 0 56.94916066513762 66.8367" height="66.8367" width="56.94916066513762" id="SvgjsSvg1360"><g><svg viewBox="0 0 56.94916066513762 66.8367" height="66.8367" width="56.94916066513762"><g transform="matrix(1,0,0,1,0,0)"><svg width="56.94916066513762" viewBox="-2.5 -39.05 38.15 44.6" height="66.8367" data-palette-color="url(#8c0f3623-bf48-4545-a410-fcb8c87d371d)"><path d="M25.1-5.4L31.65-2.45 28.6 1.55 22.05-2.35 18.45-13.55 14.25-16.85 9.95-15.5 9.8-2.45 13.2-1.75 13.5 0.2 2.5 0 2.35-1.35 5.7-2.35 5.7-32.1 1.5-33.6 1.75-35.05 12.9-35.05 13.15-33.2 10.1-32.35 10.2-32.3 9.95-18.85 15-20.25 18.35-22.8 21.3-33.85 27.35-35.05 28.15-32.05 24.6-31.35 20.05-20.1 18.2-18.7 21.3-17.1 25.1-5.4Z" opacity="1" transform="matrix(1,0,0,1,0,0)" fill="black" class="wordmark-text-0" id="SvgjsPath1359"></path></svg></g></svg></g></svg></g></svg></g></svg></g></svg></g><g mask="url(#4a55c013-1a3f-4344-b0b5-d1e1e3a47656)"><g transform="matrix(1.19140625, 0, 0, 1.19140625, 24.828125, 1)"><svg xmlns="http://www.w3.org/2000/svg" data-name="Layer 1" viewBox="20 0 88 128" x="0" y="0" height="128" width="88" class="icon-none" data-fill-palette-color="accent" id="SvgjsSvg1358"><path d="M28 39v76a5.006 5.006 0 0 0 5 5H95a5.006 5.006 0 0 0 5-5V39a5.006 5.006 0 0 0-5-5H33A5.006 5.006 0 0 0 28 39Zm68 0v76a1.001 1.001 0 0 1-1 1H33a1.001 1.001 0 0 1-1-1V39a1.001 1.001 0 0 1 1-1H95A1.001 1.001 0 0 1 96 39Z" fill="black"></path><path d="M45 92H83a4 4 0 0 0 4-4V77A15.006 15.006 0 0 0 72.878 62.044a12 12 0 1 0-17.756 0A15.006 15.006 0 0 0 41 77V88A4 4 0 0 0 45 92ZM64 46a8 8 0 1 1-8 8A8 8 0 0 1 64 46ZM45 77A11 11 0 0 1 56 66H72A11 11 0 0 1 83 77V88H45Z" fill="black"></path><path d="M83 96H45a2 2 0 0 0 0 4H83a2 2 0 0 0 0-4Z" fill="black"></path><path d="M76.5 104h-25a2 2 0 0 0 0 4h25a2 2 0 0 0 0-4Z" fill="black"></path><path d="M58 0a2 2 0 0 0-2 2V14H26a6.007 6.007 0 0 0-6 6V122a6.007 6.007 0 0 0 6 6h76a6.007 6.007 0 0 0 6-6V20a6.007 6.007 0 0 0-6-6H72V2a2 2 0 0 0-4 0V26H60V2A2 2 0 0 0 58 0ZM75 30a2 2 0 0 0 0-4H72V18h30a2.002 2.002 0 0 1 2 2V122a2.003 2.003 0 0 1-2 2H26a2.003 2.003 0 0 1-2-2V20a2.002 2.002 0 0 1 2-2H56v8H53a2 2 0 0 0 0 4Z" fill="black"></path></svg></g></g></svg></g><defs><mask></mask></defs></svg><rect width="154.5" height="154.5" fill="black" stroke="none" visibility="hidden"></rect></g></mask></svg><rect width="154.5" height="154.5" fill="black" stroke="none" visibility="hidden"></rect></g></mask><linearGradient x1="0" x2="1" y1="0.5" y2="0.5" id="511df4d9-361f-452d-ad54-dbca26775d07"><stop stop-color="#f00b51" offset="0"></stop><stop stop-color="#730062" offset="1"></stop></linearGradient><rect width="154.5" height="154.5" fill="url(#511df4d9-361f-452d-ad54-dbca26775d07)" mask="url(#6d7327b6-2c13-43f6-aa0a-b09c62985941)" data-fill-palette-color="accent"></rect></svg><rect width="154.5" height="154.5" fill="none" stroke="none" visibility="hidden"></rect></g></svg></g></svg>